<svg xmlns="http://www.w3.org/2000/svg" viewBox="0 0 24 24" fill="currentColor">
  <path d="M12 .5C5.65.5.5 5.65.5 12c0 5.08 3.29 9.38 7.85 10.9.57.1.78-.25.78-.55v-2.15c-3.19.69-3.86-1.37-3.86-1.37-.52-1.33-1.27-1.68-1.27-1.68-1.04-.71.08-.7.08-.7 1.15.08 1.76 1.18 1.76 1.18 1.02 1.74 2.67 1.24 3.32.95.1-.74.4-1.24.72-1.53-2.55-.29-5.24-1.27-5.24-5.67 0-1.25.45-2.28 1.18-3.08-.12-.29-.51-1.45.11-3.02 0 0 .96-.31 3.15 1.18a10.9 10.9 0 0 1 5.74 0c2.19-1.49 3.15-1.18 3.15-1.18.62 1.57.23 2.73.11 3.02.73.8 1.18 1.83 1.18 3.08 0 4.41-2.7 5.38-5.27 5.66.41.35.77 1.04.77 2.1v3.11c0 .3.2.66.79.55A11.52 11.52 0 0 0 23.5 12C23.5 5.65 18.35.5 12 .5z"/>
</svg>